# xmcd CD database file generated by Grip 3.0.7
# 
# Track frame offsets:
#       150
#       16675
#       33662
#       48372
#       63937
#       83305
#       101180
#       114327
#       128880
#       145815
#       160205
#       176540
#       192960
# 
# Disc length: 2771 seconds
# 
# Revision: 4
# Processed by: cddbd v1.4PL0 Copyright (c) Steve Scherf et al.
# Submitted via: Grip 3.0.7
# 
DISCID=a10ad10d
DTITLE=Paul Overstreet - Living By The Book
DYEAR=1900
DGENRE=Country
TTITLE0=Lost And Found
TTITLE1=He Is Risen
TTITLE2=Dig Another Well
TTITLE3=Everybody Needs Your Touch
TTITLE4=Living By The Book
TTITLE5=Steady Working
TTITLE6=Oh Why
TTITLE7=I Will Carry My Cross For You
TTITLE8=God Is Good
TTITLE9=Until We Know
TTITLE10=Heart Of My Heart
TTITLE11=Wise Men Still Seek Him
TTITLE12=I Won't Take Less Than Your Love
EXTD=
EXTT0=
EXTT1=
EXTT2=
EXTT3=
EXTT4=
EXTT5=
EXTT6=
EXTT7=
EXTT8=
EXTT9=
EXTT10=
EXTT11=
EXTT12=
PLAYORDER=
